<?xml version="1.0" encoding="iso-8859-1"?>
<!-- Uploaded to: SVG Repo, www.svgrepo.com, Generator: SVG Repo Mixer Tools -->
<!DOCTYPE svg PUBLIC "-//W3C//DTD SVG 1.1//EN" "http://www.w3.org/Graphics/SVG/1.1/DTD/svg11.dtd">
<svg fill="#000000" version="1.1" id="Capa_1" xmlns="http://www.w3.org/2000/svg" xmlns:xlink="http://www.w3.org/1999/xlink" 
	 width="800px" height="800px" viewBox="0 0 168.116 168.115"
	 xml:space="preserve">
<g>
	<path d="M89.795,60.477c0,0-1.229,5.39-6.419,5.39c-5.182,0-5.673-5.39-5.673-5.39s-3.447,8.821-5.756,8.821
		c-2.311,0-32.948-14.889-32.948-14.889s-4.662-1.984-2.437-6.063C33.316,49.784,9.957,57.215,0,82.708
		c3.411-2.475,6.936-4.278,10.085-2.694c2.533,1.278,15.472,9.437,15.472,9.437s2.012,1.17,1.497,6.735
		c0.901-0.781,6.723-5.59,9.929-4.044c3.21,1.549,17.481,10.107,17.481,10.107s1.02,0.65,0.955,6.067
		c1.765-2.265,5.657-6.128,8.465-4.716c2.706,1.438,12.216,6.572,16.142,8.755c3.929,2.188,4.418,7.414,4.418,7.414
		s0.105-5.215,4.033-7.414c2.479-1.258,15.076-8.088,15.076-8.088s3.194-1.159,9.38,4.729c-0.089-2.222-1.041-4.958,0.71-6.741
		c1.746-1.773,16.202-9.75,16.202-9.75s2.835-1.852,9.922,3.686c0.12-1.854,0.043-4.552,2.124-6.067
		c2.078-1.516,16.809-9.437,16.809-9.437s4.771-2.503,9.417,4.046c-0.377-3.395-7.895-23.534-35.951-35.036
		c-0.498,1.562,1.998,2.626-3.721,5.389c-4.755,2.299-32.279,14.148-32.279,14.148S92.953,70.501,89.795,60.477z"/>
</g>
</svg>