<svg width="677" height="885" viewBox="0 0 677 885" fill="none" xmlns="http://www.w3.org/2000/svg">
<path d="M102.105 59.3721L0 118.804V211.957V305.11L66.341 345.996L132.622 386.822L132.682 402.779C133.044 488.946 136.12 883.897 136.421 884.198C136.662 884.439 183.282 858.185 240.034 825.85L343.164 767.02L343.043 517.067L342.862 267.114L274.591 228.215C237.018 206.839 206.079 189.015 205.778 188.714C205.356 188.172 208.19 53.3506 208.793 47.5699L208.974 45.643L421.265 170.047C538.026 238.512 633.738 294.693 633.979 294.933C634.341 295.235 632.471 415.484 631.868 430.297L631.747 433.97L567.216 395.372C531.753 374.056 494.421 351.596 484.35 345.394C474.278 339.192 465.895 334.194 465.774 334.374C465.352 334.796 467.041 583.906 467.463 584.327C467.644 584.508 514.625 558.073 571.799 525.617C628.973 493.162 675.955 466.546 676.256 466.486C676.799 466.245 674.326 272.594 673.783 272.052C673.241 271.57 204.572 -0.0602295 204.33 -1.44119e-05C204.21 -1.44119e-05 158.193 26.7355 102.105 59.3721Z" fill="black"/>
</svg>
