<svg width="488" height="574" viewBox="0 0 488 574" fill="none" xmlns="http://www.w3.org/2000/svg">
<path d="M229.571 3.46668C211.704 12.6667 195.171 22.5333 185.571 30C175.171 38.1333 157.837 55.3333 153.571 61.7333C152.504 63.4667 149.171 73.8667 146.237 84.8C143.304 95.7333 140.104 107.6 139.037 111.333C137.971 114.933 134.904 126.8 132.371 137.733C124.504 170.533 112.104 208.667 102.904 228.667C95.4374 244.667 91.9707 253.733 82.7707 280.933L74.904 304L68.904 305.867C65.5707 306.933 59.4374 308.8 55.304 309.867C48.104 311.867 47.1707 312.667 40.104 322.4C29.8374 336.267 17.1707 350.4 14.104 351.333C11.1707 352.267 10.6374 354.667 13.304 354.667C14.3707 354.667 19.5707 357.867 24.904 361.6C30.2374 365.467 37.704 370.8 41.5707 373.333C45.4374 375.867 51.1707 380 54.2374 382.267C62.104 388.267 57.4374 388 48.7707 382C45.0374 379.467 41.4374 377.333 40.7707 377.333C38.2374 377.333 28.904 372.667 28.904 371.333C28.7707 370 19.9707 363.067 14.504 360.133C11.1707 358.4 1.57069 357.6 0.104024 358.933C-0.829309 359.867 3.70402 365.333 47.5707 414.8C64.104 433.467 79.304 451.2 81.4374 454.267C85.5707 460.4 87.5707 461.467 87.5707 457.6C87.704 455.333 91.4374 447.733 91.5707 449.867C91.5707 450.533 92.3707 450.267 93.304 449.467C97.5707 446 98.104 452.933 94.3707 462.8L91.704 469.6L97.704 478.533C100.904 483.333 103.571 488.133 103.571 489.2C103.571 490.667 105.304 490.933 111.437 490.267C117.571 489.733 120.504 490.133 125.037 492.4C128.237 493.867 131.837 495.2 132.904 495.2C133.971 495.333 134.904 496.133 134.904 496.933C134.904 497.867 138.104 500.8 141.971 503.333C148.237 507.6 148.904 507.867 148.904 505.467C148.904 503.733 147.304 501.867 144.771 500.667C140.237 498.267 134.904 493.333 136.904 493.333C137.704 493.333 138.104 491.6 137.971 489.333C137.704 486.133 136.771 485.067 133.171 483.867C130.771 483.067 129.037 482.133 129.304 481.733C130.104 481.067 146.771 485.867 167.437 492.933L182.771 498L184.904 506.667C186.104 511.467 188.104 517.6 189.304 520.267C190.504 523.2 190.904 525.333 190.104 525.333C189.304 525.333 189.971 527.467 191.571 530C194.237 534.4 194.237 534.667 191.971 534.667C189.971 534.667 190.104 535.067 192.904 537.333C195.171 539.067 197.437 539.733 199.704 539.2C202.637 538.667 203.571 539.2 205.304 542.933C206.504 545.333 209.304 548.4 211.704 549.867C213.971 551.2 221.037 557.067 227.304 562.8C233.571 568.667 239.437 573.333 240.237 573.333C241.037 573.333 252.504 568 265.704 561.467C278.904 555.067 291.037 549.333 292.637 548.8C296.104 547.6 296.504 545.6 293.437 544.4C291.837 543.867 291.704 543.333 293.037 542.533C294.104 542 295.437 542.4 296.371 543.733C297.837 545.733 298.237 545.733 301.437 543.6C303.304 542.267 304.904 541.6 304.904 542C304.904 542.4 309.171 540.533 314.237 537.733C321.571 534 323.171 532.533 321.571 531.6C319.037 530.267 306.237 529.467 306.237 530.667C306.237 531.2 305.437 531.6 304.371 531.6C303.037 531.6 303.704 529.2 306.904 523.2C309.304 518.667 312.371 511.2 313.704 506.8C315.971 499.333 316.504 498.533 322.237 496.133C328.371 493.6 374.237 478.533 381.571 476.8C388.771 474.933 384.371 476.933 371.704 481.2C355.971 486.533 354.237 487.6 355.837 492C356.771 494.667 357.304 494.933 358.237 493.333C360.237 490 360.637 492.4 358.771 496.933C357.704 499.333 356.104 501.333 355.171 501.333C354.104 501.333 352.504 502.8 351.571 504.667C349.971 507.6 350.104 508.667 351.971 512.8C353.571 516.133 354.904 517.333 356.637 516.933C357.837 516.533 361.037 515.867 363.704 515.467C368.104 514.667 368.637 514.133 369.437 509.333C370.104 505.067 372.904 501.333 386.237 487.067C395.037 477.733 402.237 469.2 402.237 468.267C402.237 467.467 402.771 466.667 403.437 466.667C404.104 466.667 403.837 464.267 402.771 461.333C401.704 458.533 400.504 453.467 400.104 450.4C399.171 445.2 399.304 444.8 401.304 446.4C402.504 447.467 404.104 447.867 404.771 447.333C405.571 446.933 406.771 449.067 407.704 452.667C408.504 456 409.704 459.067 410.237 459.333C410.904 459.733 413.571 457.467 416.237 454.4C421.704 448 425.571 445.467 429.971 445.333C431.704 445.333 432.637 444.8 432.237 444C430.904 441.867 432.904 442.4 437.171 445.467C441.971 448.933 443.704 447.733 439.837 443.6C436.904 440.533 436.904 440.4 439.437 437.6C440.771 436 442.371 434.667 443.037 434.667C444.771 434.667 448.771 426.933 449.704 421.6C450.371 418.267 449.971 416.8 448.237 415.467C445.704 413.6 446.504 410.667 449.571 410.667C450.637 410.667 453.171 408.133 455.037 404.933C457.037 401.867 465.171 389.467 473.304 377.333L487.837 355.467L483.704 351.733C481.304 349.6 478.904 348.267 478.104 348.667C477.437 349.2 474.104 348.533 470.904 347.2C465.971 345.333 464.504 345.333 462.904 346.667C461.704 347.6 461.171 349.467 461.571 350.8C462.104 352.533 461.437 353.333 458.237 354C456.104 354.533 454.237 355.467 454.237 356.133C454.237 356.8 453.171 357.333 451.837 357.333C450.371 357.333 448.371 358.4 447.171 359.733C444.904 362.133 428.237 370.933 422.637 372.667C418.104 374 418.904 371.467 423.571 369.733C427.971 368.133 428.904 365.333 425.304 365.333C423.571 365.2 424.237 364.267 427.571 361.6C439.837 352 453.704 340.667 454.637 339.467C456.104 337.333 454.371 329.333 451.171 323.6C449.037 319.733 447.571 318.667 444.637 318.667C442.504 318.667 441.037 319.2 441.571 320C443.171 322.533 433.971 336.933 424.371 346.933C418.904 352.667 413.837 357.333 413.037 357.333C412.237 357.333 413.704 355.2 416.237 352.533C418.771 349.867 420.904 346.933 420.904 345.867C420.904 344.8 423.171 340.667 425.837 336.533C428.771 332 430.237 328.8 429.437 328.267C428.637 327.733 427.971 324.933 428.104 322C428.104 319.067 427.571 314.8 427.037 312.533L425.971 308.267L433.171 310C448.637 313.6 449.971 314.4 458.504 326.933C465.837 337.733 476.104 348 477.704 346.267C478.104 345.867 475.571 342.4 472.237 338.667C468.771 334.8 462.771 327.2 458.771 321.867C451.971 312.667 451.037 311.867 443.837 310C439.704 308.8 433.171 306.933 429.304 305.733L422.504 303.733L417.837 290.133C415.171 282.8 411.704 272.4 410.104 267.333C408.504 262.133 403.571 249.6 399.171 239.333C394.771 229.067 389.704 217.067 387.971 212.667C383.437 201.333 368.371 148.933 364.237 130.133C357.437 99.0667 348.637 67.2 345.571 62C336.771 47.0667 312.904 26.1333 290.237 13.3333C267.971 0.800011 265.437 1.07884e-05 249.837 1.07884e-05C237.971 0.133344 235.437 0.533344 229.571 3.46668ZM245.837 4.66668C243.837 5.73334 241.304 7.46668 240.104 8.53334C238.371 10.4 238.504 10.6667 241.304 11.3333C243.037 11.8667 245.304 12.2667 246.371 12.4C247.437 12.6667 249.171 13.3333 250.237 14C251.837 15.0667 251.437 15.4667 248.237 16C244.504 16.6667 244.371 16.9333 244.104 24.6667C243.971 29.0667 243.704 33.2 243.571 34C243.304 34.6667 243.837 37.0667 244.771 39.2C246.237 42.6667 245.971 43.4667 242.771 46.8C238.637 51.2 239.037 57.3333 243.571 57.3333C246.771 57.3333 246.771 56.9333 244.371 63.7333C243.171 67.0667 242.904 69.6 243.704 70C244.371 70.5333 244.904 72.1333 244.904 73.8667C244.904 75.4667 245.571 77.4667 246.504 78.4C247.704 79.6 247.437 80 245.171 80C241.171 80 241.571 81.6 246.237 84.2667C250.904 86.9333 251.437 89.4667 247.304 89.0667C241.037 88.5333 229.704 95.3333 222.104 104.133C214.504 112.8 197.571 135.733 188.371 149.733C183.171 157.467 181.304 159.467 179.971 158.267C179.571 157.867 181.304 154.8 183.837 151.467C186.237 148.267 191.837 140.267 196.237 133.867C200.637 127.467 207.171 118.667 210.637 114.267C214.104 109.733 219.704 102.133 223.037 97.0667C226.371 92.1333 229.704 88 230.371 88C233.437 88 231.037 85.6 227.304 84.8C219.171 83.2 218.904 82.2667 224.237 74.8C226.904 71.0667 228.904 67.2 228.504 66.2667C227.704 64.1333 215.971 64.4 213.837 66.5333C211.437 68.9333 210.371 68.2667 211.304 64.9333C211.837 62.6667 210.504 63.3333 204.504 68.6667C197.571 74.9333 197.037 75.7333 197.037 81.4667C196.904 89.3333 190.504 102.267 187.171 101.6C184.237 101.067 184.237 94.6667 187.037 89.0667C188.237 86.6667 188.904 83.4667 188.371 81.2C187.837 78.2667 188.237 77.0667 190.237 76C191.571 75.3333 192.904 73.0667 193.171 71.0667C193.571 66.8 197.704 65.2 198.504 68.9333C198.904 70.8 199.837 70.2667 203.571 66.1333C206.104 63.2 210.771 58.1333 213.971 54.8C217.037 51.4667 219.971 47.2 220.371 45.3333C220.771 43.4667 221.571 40.9333 222.371 39.6C225.437 33.8667 217.571 39.6 204.637 52.4C191.837 65.2 184.637 74 181.571 81.0667C180.104 84.4 178.504 86.5333 177.437 86.1333C176.504 85.7333 175.437 86.4 175.037 87.6C174.504 88.6667 173.437 89.3333 172.371 88.9333C169.304 87.7333 147.571 134.133 147.571 141.733C147.571 144.133 147.837 144.267 148.904 142.667C155.704 132.133 137.437 174 127.571 191.333C120.371 204 99.4374 245.333 100.104 245.333C101.171 245.333 108.771 233.467 112.371 226.533C114.104 222.933 116.637 218.933 117.971 217.6C119.171 216.267 122.904 211.2 126.104 206.267C129.437 201.333 132.504 197.333 133.171 197.333C134.771 197.333 134.504 198.133 131.704 204.133C130.237 207.067 128.637 211.333 128.104 213.733C127.037 218.667 110.904 251.333 109.037 252.667C108.237 253.067 105.437 257.467 102.637 262.4C99.9707 267.333 96.3707 273.067 94.7707 275.333C93.1707 277.467 90.6374 281.867 89.0374 284.933C87.4374 288.133 85.5707 290.667 84.904 290.667C82.3707 290.667 94.104 255.733 105.171 230C118.104 200.267 127.437 170.133 141.437 112.667C153.704 62.9333 152.771 65.3333 165.437 52.1333C180.771 36.4 193.171 26.6667 209.837 17.2C230.504 5.33334 236.771 2.66668 243.571 2.66668H249.571L245.837 4.66668ZM271.437 7.33334C283.704 12.4 297.437 20.1333 308.904 28.4C318.637 35.4667 341.304 58.2667 344.237 64C346.904 69.2 351.971 88.4 358.771 119.867C363.837 142.933 378.504 194.8 384.771 211.467C386.904 217.333 391.971 229.733 395.971 239.333C402.104 253.733 412.637 284 416.237 297.333C416.771 299.2 413.837 294.933 409.971 288C405.971 281.067 400.237 271.467 397.037 266.667C391.304 257.867 370.104 215.6 366.771 206.133C364.504 200 364.504 198.667 366.237 198.667C367.304 198.667 377.971 215.733 381.304 222.667C381.837 223.733 385.304 229.733 389.037 236C399.571 253.6 395.704 242.8 380.637 212C373.304 196.933 363.171 174.4 358.237 162C340.904 118.933 324.771 84.9333 322.637 87.2C322.104 87.7333 325.171 100 326.904 104.4C327.704 106.267 327.171 107.067 325.171 107.6C322.504 108.267 322.504 108.533 324.237 111.067C325.304 112.667 326.237 115.467 326.237 117.467C326.237 119.333 327.437 124.667 328.904 129.2C331.704 137.6 331.437 141.333 328.371 138.8C327.437 138 325.304 133.067 323.704 127.733C322.104 122.4 319.837 115.2 318.771 111.867C316.371 104 316.371 104 319.571 104C321.037 104 322.237 103.333 322.237 102.533C322.237 101.733 321.304 101.333 320.237 101.867C319.037 102.267 318.237 101.867 318.237 100.667C318.237 99.6 318.904 98.6667 319.837 98.6667C321.037 98.6667 321.037 98.2667 319.837 97.0667C318.904 96.1333 318.237 94.1333 318.237 92.5333C318.237 90.8 317.704 89.0667 316.904 88.6667C316.237 88.2667 315.571 86.1333 315.571 84.1333C315.571 80.2667 310.104 68.6667 304.771 61.2C303.037 58.8 301.037 55.7333 300.237 54.5333C299.571 53.3333 296.904 49.7333 294.504 46.5333C291.437 42.5333 290.371 39.8667 290.771 37.8667C291.837 33.7333 277.171 18.2667 263.971 9.46668C255.837 4.13334 254.371 2.66668 257.037 2.66668C258.904 2.66668 265.304 4.80001 271.437 7.33334ZM178.637 99.0667C181.704 100.267 181.571 104 177.704 113.733C174.371 122.4 170.237 134.667 170.237 135.867C170.237 137.733 182.104 123.067 182.237 121.067C182.237 117.333 183.704 114.667 185.704 114.667C188.771 114.667 187.971 117.067 178.237 135.067C168.504 152.933 162.237 168.533 163.304 171.867C163.704 173.067 163.304 173.333 162.237 172.667C161.037 172 160.771 172.133 161.437 173.067C161.971 174 161.437 176.267 160.371 178.267C158.237 182 152.904 195.467 152.904 196.933C152.904 197.333 154.371 195.467 156.237 192.8C158.104 190.133 159.571 187.6 159.571 187.067C159.571 185.333 165.971 178.933 166.904 179.733C167.571 180.267 167.571 179.867 167.037 179.067C166.237 177.733 173.304 165.333 174.771 165.333C175.037 165.333 175.037 166.8 174.904 168.667C174.504 171.867 170.371 179.6 167.171 183.067C163.171 187.333 158.771 194.667 148.771 214.267C142.771 225.867 137.304 235.467 136.771 235.733C136.237 236 136.104 237.067 136.504 238.133C136.904 239.2 136.371 240 135.437 240C134.504 240 132.237 241.6 130.637 243.6L127.571 247.333L130.237 240C131.837 236 134.237 230.267 135.571 227.333C147.037 202.933 153.437 184.8 157.837 164.667C158.904 159.467 161.571 150 163.704 143.467C166.104 136 167.571 128.8 167.571 124C167.571 119.867 167.971 116 168.637 115.467C169.171 114.933 169.571 114 169.704 113.6C170.637 105.067 174.104 94.9333 175.304 96.8C175.837 97.6 177.304 98.5333 178.637 99.0667ZM279.571 103.333C279.571 103.867 278.371 102.8 276.904 100.933C275.437 99.0667 274.237 97.2 274.237 96.6667C274.237 96.1333 275.437 97.2 276.904 99.0667C278.371 100.933 279.571 102.8 279.571 103.333ZM303.837 137.333C312.771 150.4 316.104 156 315.037 156C314.237 156 294.237 125.867 294.237 124.533C294.237 123.2 294.371 123.333 303.837 137.333ZM329.304 144.267C331.304 146.667 332.904 149.733 332.904 151.067C332.904 152.4 334.104 155.067 335.571 157.067C337.037 159.067 340.371 168.133 342.904 177.333C347.437 193.067 355.971 216.4 358.237 219.333C359.704 221.2 368.904 243.6 368.904 245.2C368.904 249.067 365.971 245.6 361.037 236C353.437 221.467 335.571 177.467 335.571 173.333C335.571 168.267 332.504 160.533 325.704 148.267C319.037 136.4 317.437 129.867 322.637 136.4C324.237 138.4 327.171 142 329.304 144.267ZM247.037 145.467C247.437 146.133 247.037 146.667 246.371 146.667C244.104 146.667 244.637 158.133 246.904 160C249.437 162.133 249.437 164 247.037 164C243.437 164 237.437 151.2 238.771 146.267C239.437 143.6 240.237 143.2 242.904 143.733C244.771 144 246.637 144.8 247.037 145.467ZM255.571 145.333C257.437 146.8 259.837 148 260.904 148C262.371 148.133 262.237 148.533 260.371 150C257.037 152.533 255.037 152.533 255.971 150C256.504 148.933 255.304 147.067 253.171 145.467C251.171 144 250.237 142.8 250.904 142.8C251.704 142.667 253.704 143.867 255.571 145.333ZM233.571 170.4C232.771 173.733 232.637 173.733 229.571 168.133C226.904 163.467 226.637 162.133 227.971 160C229.437 157.467 229.704 157.733 231.971 162.133C233.571 165.2 234.104 168.267 233.571 170.4ZM274.237 160.933C274.237 161.6 272.637 164.4 270.771 167.333C268.904 170.267 267.571 171.733 267.971 170.667C268.237 169.6 268.904 167.333 269.437 165.6C270.237 163.2 269.971 162.667 267.571 162.667C265.971 162.667 265.171 162 265.571 161.333C266.504 159.733 274.237 159.467 274.237 160.933ZM224.104 170C232.371 177.733 234.104 181.333 229.837 181.333C228.904 181.333 229.037 180.8 230.237 180C231.837 178.933 231.837 178.667 229.571 178.667C228.104 178.667 226.104 177.467 225.171 175.867C223.437 173.2 223.304 173.2 221.571 175.6C220.104 177.467 219.437 177.6 218.104 176.4C216.104 174.4 211.037 176.667 212.371 178.933C212.904 179.6 211.704 179.2 209.704 178C205.837 175.333 205.304 173.067 208.237 170.667C209.304 169.733 209.837 168.533 209.571 167.867C208.637 166.4 211.837 161.333 213.704 161.333C214.504 161.333 219.171 165.2 224.104 170ZM284.904 166C284.904 166.933 283.437 169.6 281.571 171.733L278.237 175.6L284.371 174.533C293.171 172.933 295.437 175.2 288.637 178.8C286.637 179.867 286.104 179.867 286.771 178.8C287.971 176.933 286.104 176.933 281.571 178.667C279.571 179.467 277.304 179.6 276.504 179.067C273.704 177.333 267.171 178.8 264.637 181.733C263.171 183.333 263.571 182.267 265.437 179.333C269.037 173.733 282.104 162.533 283.971 163.6C284.504 163.867 284.904 164.933 284.904 166ZM209.304 182.8C217.571 186 222.771 190 221.437 192.267C220.237 194.133 203.971 192.8 198.104 190.267C191.171 187.2 188.371 184.667 189.304 182.133C190.504 179.067 200.237 179.333 209.304 182.8ZM307.571 181.333C309.171 182.267 309.037 182.933 306.904 185.333C302.504 190.133 297.437 192 286.104 192.933C277.037 193.6 275.304 193.467 275.837 191.867C276.637 189.467 289.571 181.6 294.104 180.933C300.637 179.867 305.571 180 307.571 181.333ZM228.237 188.667L230.904 190.8L228.237 189.467C226.771 188.8 224.371 187.2 222.904 186L220.237 183.867L222.904 185.2C224.371 185.867 226.771 187.467 228.237 188.667ZM250.371 201.867C251.571 203.467 254.237 201.6 254.237 199.2C254.237 198.133 254.904 197.333 255.704 197.333C256.637 197.333 256.904 198.533 256.504 200.267C256.104 202 255.304 207.2 254.771 212C253.837 220.933 252.504 224 249.437 224C245.971 224 243.971 220 243.037 211.733C242.504 207.067 241.704 202 241.304 200.4C240.637 197.6 240.904 197.6 245.171 199.067C247.571 200 249.971 201.2 250.371 201.867ZM311.971 204.933C311.037 205.2 308.771 206.8 306.771 208.4C304.771 210 302.371 211.333 301.704 211.6C300.904 211.733 296.104 212.667 290.904 213.733C279.837 215.867 278.771 217.733 285.037 224.133C288.904 228.133 289.171 228.667 287.704 233.2C286.904 235.867 285.304 239.2 284.104 240.667C282.371 242.933 282.104 242.933 282.771 241.067C283.171 239.733 282.237 236.667 280.771 234.133C277.437 228.267 275.837 216.133 278.237 214.667C279.437 213.867 278.637 213.333 275.437 212.8C268.637 211.733 265.437 212.533 260.504 216L256.237 219.2L260.637 213.6C265.304 207.867 268.104 206.267 266.637 210.267C265.837 212.267 266.104 212.4 267.704 211.067C269.171 209.867 271.037 209.733 274.371 210.667C276.771 211.467 282.504 212 287.037 212C293.571 212 296.771 211.2 303.704 207.6C308.371 205.2 312.504 203.467 312.904 203.867C313.304 204.133 312.904 204.667 311.971 204.933ZM202.104 211.467C206.637 213.2 206.637 213.333 202.904 212.667C200.771 212.4 197.571 211.733 195.971 211.2C193.837 210.667 192.904 210.933 192.904 212.267C192.904 213.333 191.837 215.2 190.504 216.4C188.237 218.4 187.971 218.4 186.104 216.267C184.904 214.933 184.237 212.4 184.504 210.533C185.437 204 185.837 203.733 191.837 206.8C194.904 208.4 199.571 210.533 202.104 211.467ZM235.304 211.067C236.237 211.867 238.237 214.267 239.837 216.533C242.637 220.667 242.637 220.667 237.437 215.867C232.371 211.2 232.104 211.2 225.571 212.267C218.371 213.6 216.904 214.933 217.837 218.8C218.637 221.6 218.237 221.733 215.037 220.533C213.837 220.133 212.904 218.533 212.904 217.2C212.904 215.867 212.237 214.667 211.304 214.667C207.171 214.667 212.637 212.533 219.971 211.2C230.237 209.467 233.171 209.467 235.304 211.067ZM296.237 218.4C295.837 218.8 294.771 218.4 293.837 217.467C292.637 216.133 292.771 216 294.637 216.8C295.971 217.2 296.637 218 296.237 218.4ZM217.837 228.8C216.904 234.4 217.037 234.267 213.571 234.933C211.304 235.2 210.771 234.533 210.504 230.4C210.104 225.467 210.237 225.333 217.437 224.133C218.104 224.133 218.237 226.133 217.837 228.8ZM187.437 231.2C191.037 234.933 192.371 237.867 194.237 246.533C195.437 252.4 196.104 257.867 195.571 258.8C195.037 259.6 194.637 258.8 194.637 256.933C194.637 253.2 187.837 238.133 183.571 232C178.637 225.067 181.037 224.533 187.437 231.2ZM312.637 236.267C310.104 240.133 305.704 253.2 303.437 262.933C302.637 267.2 301.304 270.667 300.637 270.667C299.971 270.667 299.837 271.333 300.371 272.267C300.904 273.067 300.771 273.333 299.971 272.933C299.171 272.4 299.437 268.4 300.904 261.733C304.637 245.2 306.104 240.533 309.037 236.8C312.371 232.533 315.304 232.133 312.637 236.267ZM215.437 248.667C215.437 249.333 214.371 247.867 212.904 245.333C211.437 242.8 210.371 240 210.371 239.333C210.371 238.533 211.437 240.133 212.904 242.667C214.371 245.2 215.437 247.867 215.437 248.667ZM197.837 263.467C197.437 263.867 196.237 264 195.304 263.6C194.237 263.2 194.637 262.8 196.104 262.8C197.571 262.667 198.371 263.067 197.837 263.467ZM265.704 300.933C265.304 301.467 261.971 301.733 258.504 301.6C253.437 301.333 252.771 301.6 254.637 302.8C257.037 304.133 257.037 304.267 254.637 306.933C252.237 309.733 252.237 309.733 255.971 309.067C258.637 308.533 259.571 308.933 259.571 310.533C259.571 312.267 257.837 312.667 248.904 312.667H238.237L236.771 308.267C235.971 305.867 234.504 303.467 233.437 303.067C228.104 301.067 233.304 300 249.171 300C258.771 300 266.237 300.4 265.704 300.933ZM71.0374 312.533C68.104 317.2 68.3707 320.933 72.2374 328.267C76.104 335.467 76.504 338.667 73.4374 338.667C72.104 338.667 71.5707 339.467 72.104 340.667C73.0374 343.2 71.9707 343.067 66.904 340.133C62.7707 337.733 57.1707 328.133 57.0374 323.067C56.7707 315.733 50.2374 319.333 46.104 329.067C44.6374 332.267 43.5707 335.467 43.5707 336C43.5707 337.6 53.1707 346.533 61.5707 352.8C65.304 355.6 71.9707 361.333 76.6374 365.6C81.1707 369.867 85.5707 373.333 86.2374 373.333C87.0374 373.333 87.5707 374 87.5707 374.8C87.5707 376.533 82.7707 375.067 78.2374 372C71.1707 367.067 64.6374 364 61.1707 364C59.0374 364 56.104 362.8 54.504 361.333C52.904 359.867 51.304 358.667 50.904 358.667C50.504 358.667 48.504 357.2 46.504 355.333C44.504 353.467 42.2374 352 41.304 352C40.504 352 38.3707 350.133 36.7707 347.867C34.2374 344.4 33.5707 344 32.3707 345.6C30.2374 348.4 23.5707 352.533 22.6374 351.6C22.2374 351.2 24.2374 348.133 27.0374 344.933C29.9707 341.6 35.704 333.867 39.9707 327.6C44.2374 321.2 48.3707 315.6 49.304 315.067C51.4374 313.733 72.104 308.267 72.7707 308.8C73.0374 309.067 72.2374 310.8 71.0374 312.533ZM266.237 327.333C266.237 328 265.571 327.733 264.904 326.667C264.237 325.6 263.571 324 263.571 323.333C263.571 322.533 264.237 322.933 264.904 324C265.571 325.067 266.237 326.533 266.237 327.333ZM278.237 328.667C275.037 332 272.104 334.667 271.704 334.667C271.304 334.667 273.704 332 276.904 328.667C280.104 325.333 283.037 322.667 283.437 322.667C283.837 322.667 281.437 325.333 278.237 328.667ZM231.704 331.6C230.104 334.267 229.837 333.467 231.037 330C231.571 328.8 232.237 328.133 232.504 328.533C232.904 328.8 232.504 330.267 231.704 331.6ZM256.904 337.2C261.704 338.133 260.237 338.4 248.904 338.4C239.971 338.4 235.837 338 237.571 337.333C240.904 335.867 249.037 335.867 256.904 337.2ZM268.504 338.133C268.104 338.533 266.904 338.667 265.971 338.267C264.904 337.867 265.304 337.467 266.771 337.467C268.237 337.333 269.037 337.733 268.504 338.133ZM206.904 358.667C207.304 359.467 206.771 359.6 205.704 359.2C203.304 358.267 202.904 357.333 204.771 357.333C205.571 357.333 206.504 357.867 206.904 358.667ZM481.837 359.733C480.504 361.067 479.571 363.067 479.571 364.133C479.571 365.333 477.037 367.6 473.971 369.333C470.771 371.067 467.171 373.6 465.837 374.8C463.171 377.2 447.571 382.8 447.571 381.2C447.571 380.667 451.837 377.733 457.171 374.667C462.371 371.467 470.371 366.4 474.771 363.2C483.837 356.8 485.037 356.133 481.837 359.733ZM222.771 368.667C223.171 369.733 222.904 370.667 222.237 370.667C221.437 370.667 220.904 369.733 220.904 368.667C220.904 367.6 221.171 366.667 221.437 366.667C221.704 366.667 222.237 367.6 222.771 368.667ZM227.571 370.667C227.571 371.333 227.304 372 227.037 372C226.637 372 225.971 371.333 225.571 370.667C225.171 369.867 225.437 369.333 226.104 369.333C226.904 369.333 227.571 369.867 227.571 370.667ZM252.504 376.8C252.104 377.2 250.904 377.333 249.971 376.933C248.904 376.533 249.304 376.133 250.771 376.133C252.237 376 253.037 376.4 252.504 376.8ZM270.371 384.933C268.771 387.6 268.504 386.8 269.704 383.333C270.237 382.133 270.904 381.467 271.171 381.867C271.571 382.133 271.171 383.6 270.371 384.933ZM70.904 391.733C70.504 392.133 69.4374 391.733 68.504 390.8C67.304 389.467 67.4374 389.333 69.304 390.133C70.6374 390.533 71.304 391.333 70.904 391.733ZM262.771 426.133C272.104 428.533 277.437 431.067 270.371 429.733C264.104 428.667 265.304 431.6 273.037 436.267C279.037 439.867 283.037 441.067 281.571 438.667C281.171 437.867 281.571 437.333 282.504 437.333C283.437 437.333 282.771 436 280.904 434.533L277.571 431.733L282.104 434.267C289.971 438.533 299.037 447.6 303.171 455.6C307.971 464.667 311.571 476.133 311.437 481.867L311.304 486L309.971 482C309.304 479.733 308.771 476.4 308.771 474.267C308.771 472 308.237 470.933 307.304 471.467C306.371 472 306.237 471.733 306.771 470.8C307.304 470 307.304 468 306.904 466.533C306.104 464.267 305.704 464.133 304.904 465.467C304.237 466.4 304.104 467.733 304.504 468.4C304.904 468.933 305.437 472.667 305.704 476.4C305.971 480.267 306.904 484.8 307.837 486.533C309.171 489.067 309.171 489.867 307.837 490.4C304.637 491.467 295.304 514.133 296.237 518.8C296.771 521.733 295.304 522 291.704 519.733C289.704 518.533 288.371 518.933 284.104 522.4C275.437 529.333 264.237 533.733 253.171 534.4C245.837 534.933 243.571 535.467 244.104 536.8C244.504 537.733 244.237 538.933 243.571 539.333C242.904 539.733 242.104 538.933 241.571 537.467C241.171 535.867 239.037 534.533 236.504 534C234.104 533.467 228.904 531.333 224.904 529.2C219.437 526.267 217.437 525.733 216.771 526.933C216.237 527.867 214.904 529.867 213.704 531.333C211.704 533.867 211.704 533.867 212.504 530.667C212.904 528.8 213.837 526.667 214.371 525.867C215.171 524.933 214.104 523.2 211.837 521.067C206.237 515.867 202.904 511.467 202.904 509.333C202.904 508.133 201.704 507.467 199.971 507.6C197.037 508 195.304 504.533 196.237 499.867C196.504 498.533 196.104 497.333 195.304 497.333C194.504 497.333 194.237 496 194.771 494.133C195.437 491.333 195.037 490.8 190.771 490.133L186.104 489.2L186.904 481.6C189.037 462.933 191.971 456 202.771 444.4C218.104 427.867 241.571 420.667 262.771 426.133ZM359.437 460.133L356.637 464.133L359.437 466.133C363.304 468.933 362.904 470.4 357.971 471.733C355.571 472.533 346.104 475.867 336.904 479.2C323.571 484.133 319.971 485.067 318.637 483.733C317.837 482.8 316.371 478 315.571 473.067C314.904 468.133 313.837 463.2 313.437 462.133C313.037 460.933 313.171 460 313.704 460C334.371 458.8 337.037 458.933 336.371 460.8C335.704 462.4 336.237 462.4 339.571 460.667C343.171 458.8 343.971 458.8 347.571 460.667C351.971 462.933 355.571 463.333 355.571 461.333C355.571 460.533 355.037 460 354.237 460C353.571 460 352.904 459.333 352.904 458.533C352.904 457.467 353.437 457.467 354.637 458.4C355.704 459.333 357.037 459.2 358.771 457.867C362.637 455.067 362.771 455.6 359.437 460.133ZM174.237 459.733C184.104 461.733 185.571 462.4 185.304 464.667C185.037 468.533 182.371 482.933 181.837 483.467C181.704 483.733 173.304 481.2 163.171 477.867C148.237 472.933 144.904 471.333 144.904 469.2C144.904 467.867 146.104 466 147.571 465.067C149.037 464.133 150.237 462.667 150.237 462C150.237 456.933 156.904 456.267 174.237 459.733ZM139.571 472.8L144.237 474.667L139.571 473.867C134.237 472.933 129.437 470.667 132.904 470.8C133.971 470.8 137.037 471.733 139.571 472.8ZM372.904 471.333C372.904 471.6 369.437 472.933 365.304 474.133C361.037 475.333 348.371 479.6 337.171 483.6C325.971 487.6 316.371 490.667 316.104 490.267C315.171 489.333 334.371 482.133 352.637 476.667C361.171 474 368.371 471.6 368.771 471.333C369.571 470.533 372.904 470.533 372.904 471.333ZM166.904 480.933C174.237 483.467 180.771 486.133 181.437 486.8C183.037 488.267 179.437 487.2 159.571 480.133C151.171 477.067 146.371 475.067 148.904 475.467C151.437 476 159.571 478.4 166.904 480.933ZM125.571 480C127.304 480.667 127.437 481.2 126.237 481.2C125.171 481.2 123.037 480.667 121.571 480C119.837 479.333 119.704 478.8 120.904 478.8C121.971 478.8 124.104 479.333 125.571 480ZM181.571 490.667C181.971 491.467 181.437 491.6 180.371 491.2C177.971 490.267 177.571 489.333 179.437 489.333C180.237 489.333 181.171 489.867 181.571 490.667ZM197.704 514.4C196.371 514.667 194.771 514.4 193.971 513.6C193.171 512.8 193.971 512.667 196.504 513.067C199.304 513.733 199.571 514 197.704 514.4ZM207.304 529.333C209.571 532.933 208.637 532.667 204.771 528.533C203.037 526.667 202.504 525.467 203.571 526C204.771 526.4 206.371 527.867 207.304 529.333ZM291.971 528.4C292.504 528 292.904 528.267 292.904 529.067C292.904 531.067 292.104 531.067 288.771 529.2C287.304 528.533 286.637 527.2 287.037 526.4C287.704 525.467 288.504 525.6 289.571 527.067C290.504 528.267 291.571 528.933 291.971 528.4ZM224.904 533.2C224.904 534.667 224.371 536.267 223.571 536.667C222.904 537.067 222.237 536.8 222.237 536C222.237 535.2 221.571 534.933 220.771 535.333C219.971 535.867 220.104 535.067 221.171 533.467C223.304 530 224.904 529.867 224.904 533.2ZM300.237 539.6C302.637 541.467 302.637 541.6 300.504 540.8C299.171 540.4 297.437 540 296.771 540C296.104 540 295.571 539.333 295.571 538.667C295.571 536.8 297.171 537.067 300.237 539.6ZM276.371 540.667C274.904 541.733 272.771 542.667 271.704 542.667C270.504 542.533 271.437 541.733 273.571 540.667C278.771 538.267 279.437 538.267 276.371 540.667ZM234.237 544.267C235.571 545.067 235.171 545.2 232.904 544.533C231.037 544.133 228.637 543.067 227.571 542.4C226.237 541.6 226.637 541.467 228.904 542.133C230.771 542.533 233.171 543.6 234.237 544.267ZM258.637 546.267C256.904 546.533 253.971 546.533 251.971 546.267C249.837 546 251.304 545.733 254.904 545.733C258.637 545.733 260.237 546 258.637 546.267ZM249.304 560.8C248.771 562.4 248.237 562.533 247.437 561.2C246.237 559.2 247.171 556.933 248.904 558C249.571 558.4 249.704 559.733 249.304 560.8Z" fill="black"/>
<path d="M224.371 28.6667C219.704 33.0667 219.971 34.1334 224.904 30.6667C227.171 29.0667 228.904 27.2001 228.904 26.5334C228.904 24.8001 228.371 25.0667 224.371 28.6667Z" fill="black"/>
<path d="M215.571 36.6666C212.904 39.8666 214.771 40.4 217.571 37.3333C218.904 35.8666 219.304 34.6666 218.637 34.6666C217.837 34.6666 216.504 35.6 215.571 36.6666Z" fill="black"/>
<path d="M186.237 43.4667C186.237 45.3333 186.637 45.3333 188.237 44C189.304 43.0667 190.237 42.1333 190.237 41.8667C190.237 41.6 189.304 41.3333 188.237 41.3333C187.171 41.3333 186.237 42.2667 186.237 43.4667Z" fill="black"/>
<path d="M178.771 50.9333L176.237 54L179.571 51.3333C181.437 49.8667 183.171 48.5333 183.437 48.4C183.704 48.1333 183.437 48 182.637 48C181.971 48 180.237 49.3333 178.771 50.9333Z" fill="black"/>
<path d="M174.237 104C174.237 105.467 174.904 106.667 175.571 106.667C176.371 106.667 176.904 105.467 176.904 104C176.904 102.533 176.371 101.333 175.571 101.333C174.904 101.333 174.237 102.533 174.237 104Z" fill="black"/>
<path d="M217.571 438.667C217.971 439.333 218.637 440 219.037 440C219.304 440 219.571 439.333 219.571 438.667C219.571 437.867 218.904 437.333 218.104 437.333C217.437 437.333 217.171 437.867 217.571 438.667Z" fill="black"/>
<path d="M244.504 438.267C246.904 438.533 251.171 438.533 253.837 438.267C256.637 438 254.771 437.733 249.571 437.733C244.504 437.733 242.237 438 244.504 438.267Z" fill="black"/>
<path d="M235.304 439.6C236.237 440 237.437 439.867 237.837 439.467C238.371 439.067 237.571 438.667 236.104 438.8C234.637 438.8 234.237 439.2 235.304 439.6Z" fill="black"/>
<path d="M260.637 439.6C261.571 440 262.771 439.867 263.171 439.467C263.704 439.067 262.904 438.667 261.437 438.8C259.971 438.8 259.571 439.2 260.637 439.6Z" fill="black"/>
<path d="M291.571 446.133C291.571 448.133 295.437 458.133 295.571 456.267C295.571 453.2 298.237 454.667 298.237 457.867C298.237 461.733 301.037 464.267 303.571 462.667C305.037 461.733 304.637 460.4 301.437 455.2C297.837 449.333 291.571 443.6 291.571 446.133Z" fill="black"/>
<path d="M284.237 453.333C287.837 457.333 291.037 460.933 291.304 461.333C291.704 461.733 291.304 460.8 290.504 459.333C289.704 457.867 286.504 454.267 283.437 451.333C277.704 446.133 277.704 446.133 284.237 453.333Z" fill="black"/>
<path d="M295.704 472.8C295.704 474.267 296.104 474.667 296.504 473.6C296.904 472.667 296.771 471.467 296.371 471.067C295.971 470.533 295.571 471.333 295.704 472.8Z" fill="black"/>
<path d="M297.304 480.667C297.304 483.6 297.571 484.667 297.837 482.933C298.104 481.333 298.104 478.933 297.837 477.6C297.437 476.4 297.171 477.733 297.304 480.667Z" fill="black"/>
<path d="M199.971 485.333C199.971 488.667 200.237 490 200.504 488.267C200.771 486.667 200.771 484 200.504 482.267C200.237 480.667 199.971 482 199.971 485.333Z" fill="black"/>
<path d="M297.171 491.333C297.171 493.467 297.437 494.267 297.837 492.933C298.104 491.733 298.104 489.867 297.837 488.933C297.437 488.133 297.171 489.067 297.171 491.333Z" fill="black"/>
<path d="M201.171 494.667C201.171 496.533 201.437 497.2 201.837 496.267C202.104 495.467 202.104 493.867 201.837 492.933C201.437 492.133 201.171 492.8 201.171 494.667Z" fill="black"/>
<path d="M295.704 497.067C295.437 500.667 289.704 510.933 284.504 516.933L279.037 523.333L284.771 518C290.637 512.4 297.704 500 296.504 497.067C295.971 495.733 295.704 495.733 295.704 497.067Z" fill="black"/>
<path d="M202.237 498.933C202.237 500.533 205.304 507.067 208.504 512C212.504 518.267 229.171 531.067 225.437 525.067C224.771 524 225.171 523.867 227.037 524.533C233.171 527.067 234.371 526.667 228.904 523.867C225.571 522.133 220.104 517.867 216.637 514.4C208.771 506.667 208.237 507.2 215.704 515.333C218.771 518.667 220.637 521.333 219.971 521.333C217.704 521.333 209.171 511.333 205.837 504.667C203.837 500.933 202.371 498.4 202.237 498.933ZM224.237 522.667C224.637 523.333 224.504 524 223.704 524C223.037 524 221.971 523.333 221.571 522.667C221.171 521.867 221.304 521.333 222.104 521.333C222.771 521.333 223.837 521.867 224.237 522.667Z" fill="black"/>
<path d="M206.237 499.333C206.237 500 206.904 501.6 207.571 502.667C208.237 503.733 208.904 504 208.904 503.333C208.904 502.533 208.237 501.067 207.571 500C206.904 498.933 206.237 498.533 206.237 499.333Z" fill="black"/>
<path d="M280.371 515.867C277.571 518.667 272.904 522.133 270.104 523.333C267.171 524.667 265.171 526 265.437 526.267C267.037 527.867 281.171 518.4 284.237 513.733C287.171 509.333 286.237 509.867 280.371 515.867Z" fill="black"/>
<path d="M241.971 528.933C242.771 529.2 244.371 529.2 245.304 528.933C246.104 528.533 245.437 528.267 243.571 528.267C241.704 528.267 241.037 528.533 241.971 528.933Z" fill="black"/>
<path d="M245.971 531.6C248.371 531.867 251.971 531.867 253.971 531.6C255.971 531.333 253.971 531.067 249.571 531.067C245.171 531.067 243.571 531.333 245.971 531.6Z" fill="black"/>
<path d="M152.237 470.667C151.837 471.333 152.104 472 152.771 472C153.571 472 154.237 471.333 154.237 470.667C154.237 469.867 153.971 469.333 153.704 469.333C153.304 469.333 152.637 469.867 152.237 470.667Z" fill="black"/>
<path d="M326.771 529.2C327.304 529.867 326.771 530.8 325.971 531.067C325.037 531.467 324.904 531.867 325.704 531.867C326.371 532 328.237 531.067 329.704 530C332.104 528.133 332.104 528.133 329.171 528C327.437 528 326.371 528.533 326.771 529.2Z" fill="black"/>
</svg>
