<svg width="264" height="400" viewBox="0 0 264 400" fill="none" xmlns="http://www.w3.org/2000/svg">
<path d="M131.578 0C152.631 0 184.209 7.89474 184.209 7.89474L155.262 94.7368H131.578H107.894L78.9463 7.89474C78.9463 7.89474 110.525 0 131.578 0ZM131.578 105.263H163.157L194.736 10.5263C194.736 10.5263 236.841 21.0526 247.367 42.1053C257.894 63.1579 261.018 116.448 263.156 176.317C263.156 293.257 236.841 347.368 186.252 393.518C181.231 398.098 151.138 400 131.578 400C112.017 400 81.9242 398.098 76.9032 393.518C26.3147 347.368 0 293.257 0 176.317C2.13789 116.448 5.26211 63.1579 15.7884 42.1053C26.3147 21.0526 68.42 10.5263 68.42 10.5263L99.9989 105.263H131.578ZM131.578 326.316H173.683L184.209 347.368C184.209 347.368 194.736 326.316 205.262 326.316V315.789C205.262 315.789 184.209 326.316 184.209 336.842L176.315 318.421H131.578H86.8411L78.9463 336.842C78.9463 326.316 57.8937 315.789 57.8937 315.789V326.316C68.42 326.316 78.9463 347.368 78.9463 347.368L89.4726 326.316H131.578ZM163.157 186.842V205.263C226.315 215.789 242.104 192.105 242.104 192.105L236.841 168.421C215.788 189.474 163.157 181.579 163.157 181.579H99.9989C99.9989 181.579 47.3674 189.474 26.3147 168.421L21.0516 192.105C21.0516 192.105 36.8411 215.789 99.9989 205.263V186.842H163.157Z" fill="black"/>
</svg>
